<?xml version="1.0" encoding="utf-8"?>
<!-- Generator: Adobe Illustrator 16.0.0, SVG Export Plug-In . SVG Version: 6.00 Build 0)  -->
<!DOCTYPE svg PUBLIC "-//W3C//DTD SVG 1.1//EN" "http://www.w3.org/Graphics/SVG/1.1/DTD/svg11.dtd">
<svg version="1.1" id="Layer_1" xmlns="http://www.w3.org/2000/svg" xmlns:xlink="http://www.w3.org/1999/xlink" x="0px" y="0px"
	 width="541.426px" height="315.658px" viewBox="0 0 541.426 315.658" enable-background="new 0 0 541.426 315.658"
	 xml:space="preserve">
<path fill="#6EC9ED" d="M178.993,210.898c22.894,14.259,50.664,19.052,77.092,16.178c20.708-2.246,46.519-10.287,56.392-29.722
	c3.021-5.951-0.803-24.339-4.752-20.748c-33.457,30.389-83.96,42.509-126.167,24.455
	C178.447,199.729,175.065,208.459,178.993,210.898 M291.106,126.089c0,10.896-5.457,29.963-21.802,29.963
	c-12.172,0-16.34-9.769-16.34-19.068c0-12.343,6.891-29.167,21.314-29.804c6.887-0.327,11.695,3.356,14.1,7.048
	C289.985,116.799,291.106,120.48,291.106,126.089 M226.381,136.929c0,8.509-4.252,23.402-17.021,23.402
	c-9.508,0-12.77-7.634-12.77-14.893c0-9.634,5.384-22.78,16.645-23.285c5.387-0.25,9.143,2.631,11.025,5.516
	C225.508,129.665,226.381,132.546,226.381,136.929 M316.426,126.408c0-19.87-12.82-38.623-40.07-38.623
	c-20.623,0-34.641,11.245-42.083,24.798c-4.897-3.46-11.338-5.572-19.41-5.572c-25.154,0-37.797,21.403-37.797,37.68
	c0,11.013,5.754,30.916,31.172,30.916c12.484,0,22.166-5.373,28.638-13.084c6.018,7.432,15.702,13.084,30.995,13.084
	C298.793,175.607,316.426,149.967,316.426,126.408"/>
</svg>
